<?xml version="1.0" standalone="no"?><!DOCTYPE svg PUBLIC "-//W3C//DTD SVG 1.1//EN" "http://www.w3.org/Graphics/SVG/1.1/DTD/svg11.dtd"><svg t="1580138822007" class="icon" viewBox="0 0 1024 1024" version="1.1" xmlns="http://www.w3.org/2000/svg" p-id="2456" xmlns:xlink="http://www.w3.org/1999/xlink" width="16" height="16"><defs><style type="text/css"></style></defs><path d="M446.145278 53.157145v0.028444zM678.929115 56.911723h0.341326-0.341326z m-237.249509 0.028444h-0.113775 0.113775zM250.480565 560.508721H250.309902h0.284438-0.113775z m211.195013 0h32.141464l-45.225599 368.915734 313.791702-527.717318H543.849638L670.253765 56.911723l-225.502232 0.028444-185.453399 503.568554H461.647135zM436.13307 950.330628a10.979296 10.979296 0 0 0-0.369769 0.59732l0.369769-0.568876z m2.417721 54.725819c-12.74281 0-25.314958-5.091435-34.786734-14.449436a51.938329 51.938329 0 0 1-15.132087-38.399094l0.199106-2.929708L429.505671 617.396267H251.163215C223.771862 618.391799 200.106643 596.290988 199.111111 568.41609c0.199106-7.480712 1.308414-12.799698 3.299478-17.976464L392.699429 33.587829C400.208585 13.193644 420.517439 0.64994 442.020931 0.052621h236.339309c25.997608-0.853313 51.085016 21.076836 52.052104 49.008621a50.942797 50.942797 0 0 1-3.271034 17.94802l-101.85715 277.81033h148.817819c13.79523 0.028444 26.651815 5.404317 36.237367 15.075199 9.443333 9.50022 14.591655 22.072368 14.506324 35.35561-0.113775 8.049588-2.104839 15.644075-5.774086 22.385249l-333.588568 560.911201c-8.049588 15.672519-25.770058 26.452709-45.396261 26.481153l-1.535964 0.028443z" fill="#ffffff" p-id="2457"></path></svg>