<?xml version="1.0" encoding="UTF-8"?>
<svg width="868px" height="870px" viewBox="0 0 868 870" version="1.1" xmlns="http://www.w3.org/2000/svg" xmlns:xlink="http://www.w3.org/1999/xlink">
    <!-- Generator: Sketch 51.2 (57519) - http://www.bohemiancoding.com/sketch -->
    <title>list</title>
    <desc>Created with Sketch.</desc>
    <defs></defs>
    <g id="Page-1" stroke="none" stroke-width="1" fill="none" fill-rule="evenodd">
        <g id="Artboard" transform="translate(-923.000000, -485.000000)" fill="#FFFFFF" fill-rule="nonzero">
            <g id="list" transform="translate(923.000000, 485.000000)">
                <path d="M684.8,186.8 L311.3,186.8 C299.8,186.8 290.5,196.1 290.5,207.6 C290.5,219.1 299.8,228.4 311.3,228.4 L684.8,228.4 C696.3,228.4 705.6,219.1 705.6,207.6 C705.5,196 696.2,186.8 684.8,186.8 Z" id="Shape"></path>
                <path d="M737.8,0 L130.2,0 C58.5638554,0 0,58.6987952 0,130.5 L0,739.5 C0,811.301205 58.5638554,870 130.2,870 L737.8,870 C809.436145,870 868,811.301205 868,739.5 L868,130.5 C868,58.6987952 809.436145,0 737.8,0 Z M788.5,705.5 C788.5,751.3 751.3,788.5 705.5,788.5 L124.5,788.5 C78.7,788.5 41.5,751.3 41.5,705.5 L41.5,124.5 C41.5,78.7 78.7,41.5 124.5,41.5 L705.5,41.5 C751.3,41.5 788.5,78.7 788.5,124.5 L788.5,705.5 Z" id="Shape"></path>
                <path d="M124.5,207.5 C124.5,230.419817 143.080183,249 166,249 C188.919817,249 207.5,230.419817 207.5,207.5 C207.5,184.580183 188.919817,166 166,166 C143.080183,166 124.5,184.580183 124.5,207.5 Z" id="Shape"></path>
                <path d="M684.8,394.3 L311.3,394.3 C299.8,394.3 290.5,403.6 290.5,415.1 C290.5,426.6 299.8,435.9 311.3,435.9 L684.8,435.9 C696.3,435.9 705.6,426.6 705.6,415.1 C705.5,403.5 696.2,394.3 684.8,394.3 Z" id="Shape"></path>
                <path d="M124.5,415 C124.5,437.919817 143.080183,456.5 166,456.5 C188.919817,456.5 207.5,437.919817 207.5,415 C207.5,392.080183 188.919817,373.5 166,373.5 C143.080183,373.5 124.5,392.080183 124.5,415 Z" id="Shape"></path>
                <path d="M684.8,601.8 L311.3,601.8 C299.8,601.8 290.5,611.1 290.5,622.6 C290.5,634.1 299.8,643.4 311.3,643.4 L684.8,643.4 C696.3,643.4 705.6,634.1 705.6,622.6 C705.5,611 696.2,601.8 684.8,601.8 Z" id="Shape"></path>
                <path d="M124.5,622.5 C124.5,645.419817 143.080183,664 166,664 C188.919817,664 207.5,645.419817 207.5,622.5 C207.5,599.580183 188.919817,581 166,581 C143.080183,581 124.5,599.580183 124.5,622.5 Z" id="Shape"></path>
            </g>
        </g>
    </g>
</svg>