<?xml version="1.0" encoding="UTF-8"?>
<svg width="634px" height="563px" viewBox="0 0 634 563" version="1.1" xmlns="http://www.w3.org/2000/svg" xmlns:xlink="http://www.w3.org/1999/xlink">
    <!-- Generator: Sketch 51.2 (57519) - http://www.bohemiancoding.com/sketch -->
    <title>pip</title>
    <desc>Created with Sketch.</desc>
    <defs></defs>
    <g id="Page-1" stroke="none" stroke-width="1" fill="none" fill-rule="evenodd">
        <g id="Artboard" transform="translate(-693.000000, -859.000000)" fill="#FFFFFF" fill-rule="nonzero">
            <g id="pip" transform="translate(693.717672, 859.000000)">
                <path d="M562.460728,351.537955 L562.460728,492.153137 L386.69175,492.153137 L386.69175,351.537955 L562.460728,351.537955 Z M562.460728,281.230364 L386.69175,281.230364 C348.022575,281.230364 316.384159,312.86878 316.384159,351.537955 L316.384159,492.153137 C316.384159,530.822312 348.022575,562.460728 386.69175,562.460728 L562.460728,562.460728 C601.129903,562.460728 632.768319,530.822312 632.768319,492.153137 L632.768319,351.537955 C632.768319,312.86878 601.129903,281.230364 562.460728,281.230364 Z" id="Shape"></path>
                <path d="M246.076568,492.153137 L105.461386,492.153137 C84.3691092,492.153137 70.307591,478.091619 70.307591,456.999341 L70.307591,105.461386 C70.307591,84.3691092 84.3691092,70.307591 105.461386,70.307591 L527.306932,70.307591 C548.39921,70.307591 562.460728,84.3691092 562.460728,105.461386 L562.460728,210.922773 L632.768319,210.922773 L632.768319,105.461386 C632.768319,45.6999341 587.068385,0 527.306932,0 L105.461386,0 C45.6999341,0 0,45.6999341 0,105.461386 L0,456.999341 C0,516.760794 45.6999341,562.460728 105.461386,562.460728 L246.076568,562.460728 L246.076568,492.153137 Z" id="Shape"></path>
            </g>
        </g>
    </g>
</svg>